<svg xmlns="http://www.w3.org/2000/svg" width="67" height="67" viewBox="0 0 67 67" fill="none"><g clip-path="url(#clip0_1_1147)"><path d="M15.2268 0H51.7732C60.1779 0 67 6.82212 67 15.2268V51.7732C67 60.1779 60.1779 67 51.7732 67H15.2268C6.82212 67 0 60.1779 0 51.7732V15.2268C0 6.82212 6.82212 0 15.2268 0Z" fill="url(#paint0_linear_1_1147)"></path><path d="M45.5273 38.0714L40.6424 35.9968C40.3897 35.8904 40.0971 35.9503 39.9087 36.1497L37.5372 38.6543C37.3576 38.8449 37.0828 38.9158 36.8323 38.8316C31.9141 37.1626 29.1259 32.9692 28.3324 31.6172C28.1861 31.3667 28.2149 31.052 28.4055 30.8325L30.2984 28.6582C30.4668 28.4654 30.5067 28.1906 30.4025 27.9579L28.0177 22.6717C27.8049 22.1974 27.3394 21.8871 26.8208 21.8672L25.1252 21.8073C24.8083 21.7962 24.498 21.8937 24.2475 22.0866C22.634 23.3189 22.0356 25.686 21.8184 27.4104C21.9048 27.9024 22.0178 28.3967 22.153 28.8932C23.0152 32.0582 24.8504 35.3119 27.581 38.1312C30.9611 41.6243 35.0459 43.7698 38.8626 44.3837C39.2682 44.448 39.6694 44.4967 40.0661 44.5278C41.7971 44.417 44.674 43.9493 46.1036 42.1363C46.2942 41.8947 46.3917 41.591 46.3873 41.2829L46.3585 39.3103C46.3496 38.7695 46.0238 38.2841 45.5273 38.0736V38.0714Z" fill="white"></path><path d="M34.3433 8.8989C20.9273 8.8989 10.0536 19.7748 10.0536 33.1886C10.0536 37.5039 11.1795 41.5555 13.1521 45.0663L12.5759 47.367L10.0403 57.5004L20.0829 54.6302L21.9646 54.0916C25.5906 56.2437 29.8218 57.4783 34.3455 57.4783C47.7614 57.4783 58.6352 46.6023 58.6352 33.1886C58.6352 19.7748 47.7592 8.8989 34.3455 8.8989H34.3433ZM34.3433 52.9834C32.3817 52.9834 30.4889 52.6975 28.7003 52.1655C26.6567 51.5582 24.7506 50.6318 23.0396 49.4393L21.2531 49.9491L17.7711 50.9443L15.8495 51.4939L16.3482 49.4992L17.2126 46.0394L17.7335 43.9559C16.479 42.0254 15.5525 39.8644 15.0316 37.5483C14.7147 36.1453 14.5485 34.6847 14.5485 33.1864C14.5485 22.255 23.4119 13.3916 34.3433 13.3916C45.2746 13.3916 54.1381 22.255 54.1381 33.1864C54.1381 44.1177 45.2746 52.9812 34.3433 52.9812V52.9834Z" fill="white"></path></g><defs><linearGradient id="paint0_linear_1_1147" x1="33.5011" y1="-0.432201" x2="33.5011" y2="69.3472" gradientUnits="userSpaceOnUse"><stop stop-color="#5FFB7A"></stop><stop offset="1" stop-color="#07B825"></stop></linearGradient><clipPath id="clip0_1_1147"><rect width="67" height="67" fill="white"></rect></clipPath></defs></svg>